PathFileType	4	(X/Y/Z)	/Users/itak/Documents/Research/Walk-IL/dataset/trc/00184_00008.trc
DataRate	CameraRate	NumFrames	NumMarkers	Units	OrigDataRate	OrigDataStartFrame	OrigNumFrames
100.000000	100.000000	4	53	mm	100.000000	394	789
Frame#	Time	RPSI			LPSI			L3			STRN			T10			C7			CLAV			RBAK			LBAK			LSHO			LUPA			LAEL			LAOL			LWTS			LWPS			LFRA			LIFD			LHPS			LHTS			RSHO			RUPA			RAEL			RAOL			RWTS			RWPS			RFRA			RIFD			RHTS			RHPS			RBHD			LFHD			RFHD			LBHD			LHIP			RHIP			RASI			LASI			LKNE			LTHI			LANK			LTIP			LTOE			LMT1			LMT5			LHEE			RKNE			RTHI			RANK			RTIP			RTOE			RMT1			RMT5			RHEE			
		X1	Y1	Z1	X2	Y2	Z2	X3	Y3	Z3	X4	Y4	Z4	X5	Y5	Z5	X6	Y6	Z6	X7	Y7	Z7	X8	Y8	Z8	X9	Y9	Z9	X10	Y10	Z10	X11	Y11	Z11	X12	Y12	Z12	X13	Y13	Z13	X14	Y14	Z14	X15	Y15	Z15	X16	Y16	Z16	X17	Y17	Z17	X18	Y18	Z18	X19	Y19	Z19	X20	Y20	Z20	X21	Y21	Z21	X22	Y22	Z22	X23	Y23	Z23	X24	Y24	Z24	X25	Y25	Z25	X26	Y26	Z26	X27	Y27	Z27	X28	Y28	Z28	X29	Y29	Z29	X30	Y30	Z30	X31	Y31	Z31	X32	Y32	Z32	X33	Y33	Z33	X34	Y34	Z34	X35	Y35	Z35	X36	Y36	Z36	X37	Y37	Z37	X38	Y38	Z38	X39	Y39	Z39	X40	Y40	Z40	X41	Y41	Z41	X42	Y42	Z42	X43	Y43	Z43	X44	Y44	Z44	X45	Y45	Z45	X46	Y46	Z46	X47	Y47	Z47	X48	Y48	Z48	X49	Y49	Z49	X50	Y50	Z50	X51	Y51	Z51	X52	Y52	Z52	X53	Y53	Z53	

395	3.94	760.5787353515625	1031.619506835938	-660.3212280273438	705.035400390625	1021.941711425781	-553.5049438476562	734.0784912109375	1061.57666015625	-611.8649291992188	477.6902160644531	1260.620849609375	-713.298583984375	753.9370727539062	1223.964721679688	-593.5699462890625	664.1570434570312	1485.426391601562	-592.8489379882812	485.1331481933594	1374.519165039062	-684.555908203125	783.869873046875	1328.086547851562	-679.08154296875	634.1687622070312	1452.332397460938	-500.0068359375	534.68310546875	1427.783813476562	-458.9839172363281	559.6294555664062	1292.692749023438	-387.5064086914062	572.0955200195312	1076.092041015625	-388.6796569824219	635.40576171875	1071.541748046875	-451.7256469726562	478.1754150390625	846.7094116210938	-464.4041137695312	549.49267578125	821.824462890625	-410.4886474609375	561.1321411132812	963.4312744140625	-388.6055908203125	473.1401672363281	667.2941284179688	-510.94970703125	530.83056640625	753.0108032226562	-425.7318115234375	465.8138427734375	766.0588989257812	-455.1672973632812	677.0521850585938	1482.54736328125	-782.5154418945312	727.4556884765625	1427.725463867188	-844.638427734375	784.0113525390625	1157.951293945312	-940.8944091796875	749.7003173828125	1128.228515625	-852.2117309570312	645.2533569335938	946.5813598632812	-1029.460693359375	733.1250610351562	929.5980224609375	-1040.872924804688	768.626953125	1092.00390625	-982.1063232421875	615.108642578125	761.5692138671875	-1050.304931640625	621.8856811523438	859.8357543945312	-1068.4296875	704.379638671875	853.1994018554688	-1069.00439453125	625.5137939453125	1644.42236328125	-680.220458984375	428.3774108886719	1681.310302734375	-598.4140014648438	461.4881286621094	1689.873291015625	-723.30517578125	594.5150756835938	1642.720703125	-546.5784912109375	559.3973388671875	953.7958984375	-495.7698364257812	687.4237670898438	984.99072265625	-842.3916015625	588.871826171875	1007.410888671875	-836.84375	476.7629699707031	989.746337890625	-606.79541015625	379.3215637207031	494.0136413574219	-629.2899169921875	428.3511352539062	618.3190307617188	-570.46240234375	285.175537109375	39.92575836181641	-709.9622802734375	335.7406616210938	270.3318176269531	-654.4268188476562	95.87894439697266	137.2380065917969	-728.3341064453125	135.5291595458984	113.5970230102539	-775.7014770507812	185.8727264404297	73.19499969482422	-668.7252807617188	335.1439208984375	29.32755470275879	-778.6941528320312	785.0317993164062	501.3970947265625	-775.8917846679688	694.7293701171875	751.6978759765625	-854.77294921875	976.5345458984375	49.14677047729492	-653.8154296875	800.5317993164062	380.6153564453125	-753.0748901367188	780.163818359375	40.09494400024414	-757.3936767578125	796.7318115234375	46.38019943237305	-693.655029296875	899.5482177734375	28.79654312133789	-751.1067504882812	974.2565307617188	64.27909851074219	-569.892333984375	
396	3.95	750.1528930664062	1030.779174804688	-663.6693115234375	694.9321899414062	1020.884155273438	-556.7647094726562	723.9083251953125	1060.359619140625	-615.2061767578125	468.1937255859375	1259.922119140625	-715.0281372070312	744.2338256835938	1222.701171875	-596.5634765625	654.822509765625	1484.282836914062	-594.7802734375	475.3139038085938	1373.778930664062	-686.0541381835938	774.0669555664062	1327.033935546875	-681.8240356445312	625.159912109375	1450.924072265625	-501.9444274902344	525.8180541992188	1426.411987304688	-460.5188903808594	551.0371704101562	1291.148315429688	-389.42138671875	563.8209228515625	1074.724487304688	-391.0174865722656	626.7766723632812	1070.412719726562	-454.4944458007812	472.4858093261719	843.6571044921875	-464.8477783203125	544.5437622070312	820.2337036132812	-411.3670043945312	554.2008056640625	962.0423583984375	-390.3948669433594	470.0000305175781	663.8082885742188	-510.270751953125	526.81689453125	751.0389404296875	-426.0373229980469	461.509765625	762.835205078125	-455.0816040039062	667.001953125	1481.749633789062	-784.5633544921875	717.1522827148438	1426.844970703125	-846.828857421875	773.143798828125	1156.629150390625	-942.3733520507812	738.9447021484375	1127.3076171875	-853.5014038085938	634.0758666992188	944.9091796875	-1029.783813476562	721.955322265625	927.930908203125	-1041.434936523438	757.662109375	1090.560302734375	-983.3133544921875	603.6767578125	759.8433227539062	-1049.706787109375	610.648193359375	857.9727172851562	-1068.2705078125	693.3330078125	851.6376342773438	-1069.340087890625	615.9124755859375	1643.445556640625	-682.303955078125	419.3449401855469	1680.563720703125	-598.898193359375	451.5092468261719	1689.004028320312	-724.0745239257812	585.8140869140625	1641.761352539062	-548.3814086914062	548.830322265625	953.2890014648438	-498.9774169921875	676.8295288085938	984.2803344726562	-845.6817016601562	578.2811889648438	1006.760131835938	-840.1260375976562	466.3364868164062	989.1204223632812	-609.9855346679688	368.4857177734375	493.3353271484375	-630.8994140625	417.3486022949219	618.14990234375	-572.9009399414062	279.0236206054688	38.59562683105469	-710.0245971679688	326.575927734375	268.8828735351562	-655.4906616210938	88.11412811279297	132.6645355224609	-727.4486694335938	127.7044296264648	109.2725677490234	-775.0322875976562	179.5848083496094	70.31859588623047	-668.4528198242188	328.6967163085938	28.42405891418457	-779.1162109375	777.5691528320312	501.4736328125	-779.438720703125	685.19140625	751.0914916992188	-858.1495971679688	976.4070434570312	52.00780487060547	-655.08203125	795.0299682617188	380.7442932128906	-756.2054443359375	780.1475219726562	40.05307769775391	-757.44677734375	796.6578369140625	46.53259658813477	-694.0005493164062	899.9452514648438	29.62163162231445	-751.3134765625	974.1520385742188	68.68445587158203	-571.3630981445312	
397	3.96	739.3287353515625	1030.099853515625	-667.0100708007812	684.4384155273438	1020.056762695312	-559.967529296875	713.3480834960938	1059.329833984375	-618.5228271484375	458.2037048339844	1259.569702148438	-716.7660522460938	734.2423095703125	1221.577880859375	-599.4415893554688	645.3831176757812	1483.324951171875	-596.5809936523438	465.3550415039062	1373.3349609375	-687.4962158203125	764.0738525390625	1326.07861328125	-684.4136962890625	615.97802734375	1449.701049804688	-503.76904296875	516.7643432617188	1425.275146484375	-461.9880065917969	542.173583984375	1289.849487304688	-391.2254638671875	555.2980346679688	1073.6171875	-393.1528015136719	617.9015502929688	1069.502563476562	-457.0669250488281	466.6489562988281	840.8538208007812	-465.0590515136719	539.4444580078125	818.9517211914062	-411.9903564453125	547.0496826171875	960.9412231445312	-391.9473571777344	467.001953125	660.5833740234375	-509.3499755859375	522.7338256835938	749.373291015625	-426.1007385253906	457.1433715820312	759.8578491210938	-454.762939453125	656.9207153320312	1481.159423828125	-786.4698486328125	706.8367919921875	1426.157470703125	-848.8406372070312	762.2859497070312	1155.470581054688	-943.598876953125	728.134033203125	1126.587646484375	-854.5446166992188	622.9537353515625	943.361328125	-1029.82666015625	710.849853515625	926.3974609375	-1041.692993164062	746.7312622070312	1089.278930664062	-984.2544555664062	592.3843383789062	758.1842651367188	-1048.791870117188	599.4893798828125	856.2052612304688	-1067.787963867188	682.3369140625	850.1483154296875	-1069.31201171875	606.210693359375	1642.764770507812	-684.2138061523438	410.1811218261719	1680.025512695312	-599.288330078125	441.4439697265625	1688.403930664062	-724.7249145507812	576.9517822265625	1641.029052734375	-550.0324096679688	537.8804321289062	953.11962890625	-502.0663452148438	665.8106689453125	983.7301635742188	-848.9808349609375	567.2786865234375	1006.280395507812	-843.3451538085938	455.5707702636719	988.8137817382812	-613.1038208007812	357.8026733398438	492.6502380371094	-632.366943359375	406.2780456542969	618.1044311523438	-575.130615234375	274.5269470214844	37.32368087768555	-710.2313232421875	318.0853576660156	267.3125305175781	-656.612060546875	81.39288330078125	126.7607955932617	-726.3473510742188	120.9810409545898	103.8890075683594	-774.2450561523438	174.8053436279297	66.73162841796875	-668.2884521484375	323.8350830078125	27.87104034423828	-779.7626953125	769.5350341796875	501.6304931640625	-783.2413940429688	675.1195678710938	750.6351318359375	-861.5400390625	976.14892578125	55.25609588623047	-656.509521484375	789.113525390625	380.967529296875	-759.6005859375	780.12255859375	40.02598571777344	-757.5176391601562	796.5179443359375	46.71977233886719	-694.382080078125	900.356689453125	30.42684936523438	-751.5305786132812	973.8416748046875	73.61484527587891	-573.065673828125	
398	3.97	728.13232421875	1029.601928710938	-670.3358154296875	673.5888061523438	1019.504150390625	-563.0945434570312	702.427734375	1058.539306640625	-621.7950439453125	447.7793884277344	1259.568481445312	-718.5072631835938	723.9910278320312	1220.622436523438	-602.2024536132812	635.8492431640625	1482.5771484375	-598.2666625976562	455.25634765625	1373.19091796875	-688.888671875	753.90283203125	1325.236328125	-686.8641357421875	606.6390991210938	1448.682250976562	-505.4906311035156	507.5370788574219	1424.37744140625	-463.3971252441406	533.0625610351562	1288.797729492188	-392.9356079101562	546.5347900390625	1072.766235351562	-395.0904235839844	608.7875366210938	1068.785522460938	-459.4606323242188	460.6339416503906	838.3225708007812	-465.0596923828125	534.1664428710938	817.985107421875	-412.3719787597656	539.6727905273438	960.128173828125	-393.2721252441406	464.0740966796875	657.664306640625	-508.2052307128906	518.543212890625	748.0384521484375	-425.9305114746094	452.6693115234375	757.1552734375	-454.2298278808594	646.8119506835938	1480.7880859375	-788.258544921875	696.5055541992188	1425.661987304688	-850.6936645507812	751.4370727539062	1154.480346679688	-944.5968017578125	717.2686767578125	1126.062744140625	-855.3706665039062	611.8850708007812	941.944091796875	-1029.608276367188	699.805419921875	925.0050659179688	-1041.6689453125	735.8274536132812	1088.161743164062	-984.9523315429688	581.2739868164062	756.5996704101562	-1047.574462890625	588.4070434570312	854.5463256835938	-1067.00732421875	671.3687133789062	848.7100830078125	-1068.922241210938	596.4030151367188	1642.397216796875	-685.951904296875	400.8960571289062	1679.71533203125	-599.5764770507812	431.2893371582031	1688.095458984375	-725.2528076171875	567.9429321289062	1640.54150390625	-551.5374145507812	526.6101684570312	953.2947387695312	-504.9962768554688	654.35498046875	983.3509521484375	-852.26806640625	555.84912109375	1005.983337402344	-846.4681396484375	444.4664306640625	988.8306884765625	-616.0955200195312	347.3195190429688	492.017822265625	-633.7316284179688	395.1997985839844	618.1765747070312	-577.1338500976562	271.4259033203125	36.26023483276367	-710.6398315429688	310.1612243652344	265.7512512207031	-657.8391723632812	75.52763366699219	119.7009048461914	-725.1151733398438	115.1842575073242	97.65382385253906	-773.4210205078125	171.3082733154297	62.67162322998047	-668.2760620117188	320.2796325683594	27.76191520690918	-780.6766357421875	760.8677978515625	501.8561096191406	-787.3411865234375	664.4825439453125	750.3518676757812	-864.9351806640625	975.6967163085938	58.93563842773438	-658.1107788085938	782.7125854492188	381.2787475585938	-763.30126953125	780.083740234375	40.01756286621094	-757.5991821289062	796.2862548828125	46.93651962280273	-694.7955932617188	900.7757568359375	31.21044158935547	-751.7557373046875	973.2437133789062	79.10328674316406	-575.0297241210938	
